<svg width="16" height="18" viewBox="0 0 16 18" fill="none" xmlns="http://www.w3.org/2000/svg">
<path d="M14.75 4.485C12.2525 4.2375 9.74 4.11 7.235 4.11C5.75 4.11 4.265 4.185 2.78 4.335L1.25 4.485M5.375 3.7275L5.54 2.745C5.66 2.0325 5.75 1.5 7.0175 1.5H8.9825C10.25 1.5 10.3475 2.0625 10.46 2.7525L10.625 3.7275M13.1375 6.855L12.65 14.4075C12.5675 15.585 12.5 16.5 10.4075 16.5H5.5925C3.5 16.5 3.4325 15.585 3.35 14.4075L2.8625 6.855M6.7475 12.375H9.245M6.125 9.375H9.875" stroke="#9CA5AF" stroke-width="1.2" stroke-linecap="round" stroke-linejoin="round"/>
</svg>
