<svg width="40" height="40" viewBox="0 0 40 40" fill="none" xmlns="http://www.w3.org/2000/svg">
<rect width="40" height="40" rx="8" fill="#DAFBEC"/>
<path d="M14.7 26H12.15C10.72 26 10 25.28 10 23.85V12.15C10 10.72 10.72 10 12.15 10H16.45C17.88 10 18.6 10.72 18.6 12.15V14" stroke="#059669" stroke-width="1.5" stroke-miterlimit="10" stroke-linecap="round" stroke-linejoin="round"/>
<path d="M25.3702 16.42V27.58C25.3702 29.19 24.5702 30 22.9602 30H17.1202C15.5102 30 14.7002 29.19 14.7002 27.58V16.42C14.7002 14.81 15.5102 14 17.1202 14H22.9602C24.5702 14 25.3702 14.81 25.3702 16.42Z" stroke="#059669" stroke-width="1.5" stroke-miterlimit="10" stroke-linecap="round" stroke-linejoin="round"/>
<path d="M21.4 14V12.15C21.4 10.72 22.12 10 23.55 10H27.85C29.28 10 30 10.72 30 12.15V23.85C30 25.28 29.28 26 27.85 26H25.37M18 19H22M18 22H22M20 30V27" stroke="#059669" stroke-width="1.5" stroke-miterlimit="10" stroke-linecap="round" stroke-linejoin="round"/>
</svg>
