<svg
  width="18"
  height="18"
  viewBox="0 0 18 18"
  fill="none"
  xmlns="http://www.w3.org/2000/svg"
>
  <path
    d="M2.25 8.24979C2.25 8.87979 2.7225 9.60729 3.3 9.86229L8.3925 12.1273C8.7825 12.2998 9.225 12.2998 9.6075 12.1273L14.7 9.86229C15.2775 9.60729 15.75 8.87979 15.75 8.24979M2.25 11.9998C2.25 12.6973 2.6625 13.3273 3.3 13.6123L8.3925 15.8773C8.7825 16.0498 9.225 16.0498 9.6075 15.8773L14.7 13.6123C15.3375 13.3273 15.75 12.6973 15.75 11.9998M9.75715 2.18975L14.1821 4.15475C15.4571 4.71725 15.4571 5.64725 14.1821 6.20975L9.75715 8.17475C9.25465 8.39975 8.42965 8.39975 7.92715 8.17475L3.50215 6.20975C2.22715 5.64725 2.22715 4.71725 3.50215 4.15475L7.92715 2.18975C8.42965 1.96475 9.25465 1.96475 9.75715 2.18975Z"
    stroke="#25333C"
    stroke-width="1.5"
    stroke-linecap="round"
    stroke-linejoin="round"
  />
</svg>
