<svg width="24" height="24" viewBox="0 0 24 24" fill="none" xmlns="http://www.w3.org/2000/svg">
<path d="M12.2 5.87C12.13 5.87 12.06 5.87 12 5.88V2.01C12.07 2 12.13 2 12.2 2C14.46 2 16.4 2.69 17.99 3.86C18.49 4.22 18.53 4.95 18.09 5.38L16.7 6.74C16.36 7.07 15.84 7.13 15.45 6.86C14.7 6.34 13.63 5.87 12.2 5.87ZM21.8 12.22C21.8 15.27 20.71 17.83 18.82 19.58C17.17 21.11 14.9 22 12.2 22C12.13 22 12.07 22 12 21.99V18.12C12.07 18.13 12.13 18.13 12.2 18.13C13.69 18.13 14.82 17.72 15.67 17.13C17 16.2 17.6 14.81 17.71 13.89H13.2C12.65 13.89 12.2 13.44 12.2 12.89V11.18C12.2 10.63 12.65 10.18 13.2 10.18H20.75C21.26 10.18 21.69 10.56 21.74 11.07C21.78 11.42 21.8 11.79 21.8 12.22Z" fill="#1F75FF"/>
<path opacity="0.4" d="M6.5002 10.022C6.3002 10.642 6.1802 11.312 6.1802 12.002C6.1802 12.692 6.3002 13.352 6.5102 13.982C7.2902 16.332 9.4502 18.042 12.0002 18.122V21.992C10.1832 21.9584 8.40998 21.4281 6.87284 20.4586C5.33571 19.4891 4.09327 18.1173 3.2802 16.492H3.2702C2.5902 15.132 2.2002 13.612 2.2002 12.002C2.2002 10.392 2.5902 8.872 3.2702 7.512C4.08441 5.88548 5.32849 4.51298 6.86747 3.54341C8.40645 2.57384 10.1815 2.04422 12.0002 2.012V5.882C9.6402 5.952 7.6302 7.412 6.7102 9.482C6.6302 9.662 6.5602 9.842 6.5002 10.022Z" fill="#1F75FF"/>
</svg>
