<svg width="24" height="24" viewBox="0 0 24 24" fill="none" xmlns="http://www.w3.org/2000/svg">
<path opacity="0.4" d="M20.6211 8.45C19.5711 3.83 15.5411 1.75 12.0011 1.75H11.9911C8.46107 1.75 4.42107 3.82 3.37107 8.44C2.20107 13.6 5.36107 17.97 8.22107 20.72C9.23479 21.7012 10.5903 22.2498 12.0011 22.25C13.3611 22.25 14.7211 21.74 15.7711 20.72C18.6311 17.97 21.7911 13.61 20.6211 8.45Z" fill="#1F75FF"/>
<path d="M12.0016 13.4602C12.4152 13.4602 12.8248 13.3787 13.207 13.2204C13.5892 13.0621 13.9364 12.83 14.2289 12.5375C14.5215 12.245 14.7535 11.8978 14.9118 11.5156C15.0701 11.1334 15.1516 10.7238 15.1516 10.3102C15.1516 9.89649 15.0701 9.48688 14.9118 9.1047C14.7535 8.72253 14.5215 8.37527 14.2289 8.08277C13.9364 7.79027 13.5892 7.55824 13.207 7.39994C12.8248 7.24163 12.4152 7.16016 12.0016 7.16016C11.1661 7.16016 10.3649 7.49203 9.77418 8.08277C9.18344 8.67351 8.85156 9.47472 8.85156 10.3102C8.85156 11.1456 9.18344 11.9468 9.77418 12.5375C10.3649 13.1283 11.1661 13.4602 12.0016 13.4602Z" fill="#1F75FF"/>
</svg>
