<svg width="148" height="32" viewBox="0 0 148 32" fill="none" xmlns="http://www.w3.org/2000/svg">
<path d="M20.727 17.0294C19.6388 17.0294 18.7563 17.9252 18.7563 19.0303C18.7563 20.1354 19.6388 21.0312 20.727 21.0312C21.8154 21.0312 22.6977 20.1354 22.6977 19.0303C22.6977 17.9252 21.8154 17.0294 20.727 17.0294Z" fill="#4E95DF"/>
<path d="M12.2723 17.0294C11.184 17.0294 10.3018 17.9252 10.3018 19.0303C10.3018 20.1354 11.184 21.0312 12.2723 21.0312C13.3606 21.0312 14.243 20.1354 14.243 19.0303C14.243 17.9252 13.3606 17.0294 12.2723 17.0294Z" fill="#4E95DF"/>
<path d="M22.3566 13.3925H10.6433C8.41902 13.3925 6.51809 14.8236 5.78564 16.8266C6.79239 11.7527 11.2065 7.93167 16.5 7.93167C21.7935 7.93167 26.2077 11.7528 27.2144 16.8266C26.4819 14.8236 24.5808 13.3925 22.3566 13.3925ZM7.10296 19.4085V18.6523C7.10296 16.6699 8.69123 15.0572 10.6433 15.0572H22.3566C24.3088 15.0572 25.8971 16.6699 25.8971 18.6523V19.4085C25.8971 21.3909 24.3088 23.0036 22.3566 23.0036H10.6433C8.69123 23.0036 7.10296 21.3909 7.10296 19.4085ZM16.5 30.129C11.2067 30.129 6.79247 26.3081 5.78572 21.2344C6.51817 23.2373 8.41902 24.6683 10.6433 24.6683H22.3566C24.5808 24.6683 26.4819 23.2372 27.2144 21.2342C26.2075 26.308 21.7934 30.129 16.5 30.129ZM30.1104 16.0962C29.7145 16.0962 29.3374 16.1772 28.9938 16.3236C27.987 11.5091 24.3501 7.6818 19.6818 6.46639C19.911 6.32011 20.04 6.15545 20.04 5.98153C20.04 5.42873 18.741 4.97075 17.0444 4.88902V2.4838C17.4811 2.27569 17.7842 1.82639 17.7842 1.30411C17.7842 0.583847 17.2092 0 16.5 0C15.7908 0 15.2158 0.583847 15.2158 1.30411C15.2158 1.82639 15.5189 2.27569 15.9556 2.4838V4.88902C14.259 4.97075 12.96 5.42873 12.96 5.98153C12.96 6.15545 13.089 6.32011 13.3182 6.46639C8.64994 7.6818 5.01299 11.5091 4.00615 16.3236C3.66258 16.1772 3.28551 16.0962 2.88959 16.0962C1.2937 16.0962 0 17.4099 0 19.0303C0 20.6509 1.2937 21.9644 2.88959 21.9644C3.28568 21.9644 3.66283 21.8834 4.00657 21.737C5.23268 27.6006 10.3599 32 16.5 32C22.6401 32 27.7673 27.6006 28.9934 21.737C29.3372 21.8834 29.7143 21.9644 30.1104 21.9644C31.7063 21.9644 33 20.6509 33 19.0303C33 17.4099 31.7063 16.0962 30.1104 16.0962Z" fill="#69AEF6"/>
<path d="M44.2152 24L41.4411 14.1818H43.7997L45.5256 21.0852H45.6151L47.3793 14.1818H49.7124L51.4766 21.0469H51.5724L53.2727 14.1818H55.6378L52.8572 24H50.4474L48.6065 17.3651H48.4723L46.6314 24H44.2152ZM57.8063 24H55.275L59.8837 10.9091H62.8113L67.4263 24H64.8951L61.3986 13.5938H61.2963L57.8063 24ZM57.8894 18.8672H64.7928V20.772H57.8894V18.8672ZM71.522 10.9091V24H69.1506V10.9091H71.522ZM73.9877 27.6818V14.1818H76.2633V15.8054H76.3975C76.5169 15.5668 76.6852 15.3132 76.9025 15.0447C77.1199 14.772 77.4139 14.5398 77.7846 14.348C78.1554 14.152 78.6284 14.054 79.2037 14.054C79.9622 14.054 80.6461 14.2479 81.2555 14.6357C81.8691 15.0192 82.3549 15.5881 82.7129 16.3423C83.0751 17.0923 83.2562 18.0128 83.2562 19.1037C83.2562 20.1818 83.0794 21.098 82.7257 21.8523C82.372 22.6065 81.8904 23.1818 81.2811 23.5781C80.6717 23.9744 79.9814 24.1726 79.2101 24.1726C78.6476 24.1726 78.1809 24.0788 77.8102 23.8913C77.4395 23.7038 77.1412 23.478 76.9153 23.2138C76.6937 22.9453 76.5211 22.6918 76.3975 22.4531H76.3017V27.6818H73.9877ZM76.2569 19.0909C76.2569 19.7259 76.3464 20.282 76.5254 20.7592C76.7086 21.2365 76.9707 21.6094 77.3116 21.8778C77.6568 22.142 78.0744 22.2741 78.5645 22.2741C79.0758 22.2741 79.5041 22.1378 79.8493 21.8651C80.1944 21.5881 80.4544 21.2109 80.6291 20.7337C80.8081 20.2521 80.8976 19.7045 80.8976 19.0909C80.8976 18.4815 80.8102 17.9403 80.6355 17.4673C80.4608 16.9943 80.2008 16.6236 79.8556 16.3551C79.5105 16.0866 79.0801 15.9524 78.5645 15.9524C78.0701 15.9524 77.6504 16.0824 77.3052 16.3423C76.96 16.6023 76.698 16.9666 76.519 17.4354C76.3443 17.9041 76.2569 18.456 76.2569 19.0909ZM85.2377 24V14.1818H87.5517V24H85.2377ZM86.4011 12.7884C86.0346 12.7884 85.7193 12.6669 85.4551 12.424C85.1909 12.1768 85.0588 11.8807 85.0588 11.5355C85.0588 11.1861 85.1909 10.8899 85.4551 10.647C85.7193 10.3999 86.0346 10.2763 86.4011 10.2763C86.7718 10.2763 87.0872 10.3999 87.3471 10.647C87.6113 10.8899 87.7434 11.1861 87.7434 11.5355C87.7434 11.8807 87.6113 12.1768 87.3471 12.424C87.0872 12.6669 86.7718 12.7884 86.4011 12.7884ZM94.9041 14.1818V15.9716H89.1001V14.1818H94.9041ZM90.5511 24V13.255C90.5511 12.5945 90.6875 12.0447 90.9602 11.6058C91.2372 11.1669 91.608 10.8388 92.0724 10.6214C92.5369 10.4041 93.0526 10.2955 93.6193 10.2955C94.0199 10.2955 94.3757 10.3274 94.6868 10.3913C94.9979 10.4553 95.228 10.5128 95.3771 10.5639L94.9169 12.3537C94.8189 12.3239 94.6953 12.294 94.5462 12.2642C94.397 12.2301 94.2308 12.2131 94.0476 12.2131C93.6172 12.2131 93.3125 12.3175 93.1335 12.5263C92.9588 12.7308 92.8714 13.0249 92.8714 13.4084V24H90.5511ZM98.1545 27.6818C97.8391 27.6818 97.5472 27.6563 97.2788 27.6051C97.0146 27.5582 96.8036 27.5028 96.646 27.4389L97.1829 25.6364C97.5195 25.7344 97.82 25.7813 98.0842 25.777C98.3484 25.7727 98.5806 25.6896 98.7809 25.5277C98.9854 25.37 99.158 25.1058 99.2987 24.7351L99.4968 24.2045L95.9364 14.1818H98.391L100.654 21.5966H100.756L103.025 14.1818H105.486L101.555 25.1889C101.372 25.7088 101.129 26.1541 100.826 26.5249C100.524 26.8999 100.153 27.1854 99.7141 27.3814C99.2795 27.5817 98.7596 27.6818 98.1545 27.6818ZM107.898 24.1406C107.51 24.1406 107.177 24.0043 106.9 23.7315C106.623 23.4588 106.487 23.1264 106.491 22.7344C106.487 22.3509 106.623 22.0227 106.9 21.75C107.177 21.4773 107.51 21.3409 107.898 21.3409C108.273 21.3409 108.599 21.4773 108.876 21.75C109.157 22.0227 109.3 22.3509 109.304 22.7344C109.3 22.9943 109.231 23.2308 109.099 23.4439C108.971 23.657 108.801 23.8274 108.588 23.9553C108.379 24.0788 108.149 24.1406 107.898 24.1406ZM115.975 24.1918C114.995 24.1918 114.154 23.9766 113.451 23.5462C112.752 23.1158 112.213 22.5213 111.833 21.7628C111.458 21 111.271 20.1222 111.271 19.1293C111.271 18.1321 111.463 17.2521 111.846 16.4893C112.23 15.7223 112.771 15.1257 113.47 14.6996C114.173 14.2692 115.004 14.054 115.963 14.054C116.76 14.054 117.465 14.201 118.078 14.495C118.696 14.7848 119.189 15.196 119.555 15.7287C119.922 16.2571 120.13 16.875 120.181 17.5824H117.97C117.88 17.1094 117.667 16.7152 117.331 16.3999C116.998 16.0803 116.553 15.9205 115.995 15.9205C115.522 15.9205 115.106 16.0483 114.748 16.304C114.39 16.5554 114.111 16.9176 113.911 17.3906C113.715 17.8636 113.617 18.4304 113.617 19.0909C113.617 19.7599 113.715 20.3352 113.911 20.8168C114.107 21.294 114.382 21.6626 114.735 21.9226C115.093 22.1783 115.513 22.3061 115.995 22.3061C116.336 22.3061 116.64 22.2422 116.909 22.1143C117.181 21.9822 117.409 21.7926 117.593 21.5455C117.776 21.2983 117.902 20.9979 117.97 20.6442H120.181C120.126 21.3388 119.922 21.9545 119.568 22.4915C119.214 23.0241 118.733 23.4418 118.123 23.7443C117.514 24.0426 116.798 24.1918 115.975 24.1918ZM126.364 24.1918C125.405 24.1918 124.574 23.9808 123.871 23.5589C123.168 23.1371 122.623 22.5469 122.235 21.7884C121.851 21.0298 121.66 20.1435 121.66 19.1293C121.66 18.1151 121.851 17.2266 122.235 16.4638C122.623 15.701 123.168 15.1087 123.871 14.6868C124.574 14.2649 125.405 14.054 126.364 14.054C127.323 14.054 128.154 14.2649 128.857 14.6868C129.56 15.1087 130.104 15.701 130.487 16.4638C130.875 17.2266 131.069 18.1151 131.069 19.1293C131.069 20.1435 130.875 21.0298 130.487 21.7884C130.104 22.5469 129.56 23.1371 128.857 23.5589C128.154 23.9808 127.323 24.1918 126.364 24.1918ZM126.377 22.3381C126.897 22.3381 127.331 22.1953 127.681 21.9098C128.03 21.62 128.29 21.2322 128.461 20.7464C128.635 20.2607 128.723 19.7195 128.723 19.1229C128.723 18.522 128.635 17.9787 128.461 17.4929C128.29 17.0028 128.03 16.6129 127.681 16.3232C127.331 16.0334 126.897 15.8885 126.377 15.8885C125.844 15.8885 125.401 16.0334 125.047 16.3232C124.698 16.6129 124.436 17.0028 124.261 17.4929C124.091 17.9787 124.006 18.522 124.006 19.1229C124.006 19.7195 124.091 20.2607 124.261 20.7464C124.436 21.2322 124.698 21.62 125.047 21.9098C125.401 22.1953 125.844 22.3381 126.377 22.3381ZM133.033 24V14.1818H135.244V15.8501H135.359C135.564 15.2876 135.903 14.8487 136.376 14.5334C136.849 14.2138 137.413 14.054 138.07 14.054C138.734 14.054 139.295 14.2159 139.751 14.5398C140.211 14.8594 140.535 15.2962 140.722 15.8501H140.825C141.042 15.3047 141.408 14.87 141.924 14.5462C142.444 14.218 143.06 14.054 143.771 14.054C144.675 14.054 145.412 14.3395 145.983 14.9105C146.554 15.4815 146.839 16.3146 146.839 17.4098V24H144.519V17.7678C144.519 17.1584 144.357 16.7131 144.033 16.4318C143.71 16.1463 143.313 16.0036 142.844 16.0036C142.286 16.0036 141.849 16.1783 141.534 16.5277C141.223 16.8729 141.067 17.3224 141.067 17.8764V24H138.798V17.6719C138.798 17.1648 138.645 16.7599 138.338 16.4574C138.036 16.1548 137.639 16.0036 137.149 16.0036C136.817 16.0036 136.514 16.0888 136.241 16.2592C135.969 16.4254 135.751 16.6619 135.589 16.9688C135.428 17.2713 135.347 17.625 135.347 18.0298V24H133.033Z" fill="#69AEF6"/>
</svg>
