<svg width="133" height="40" viewBox="0 0 133 40" fill="none" xmlns="http://www.w3.org/2000/svg">
<path d="M115.909 21.2868C114.548 21.2868 113.445 22.4066 113.445 23.7879C113.445 25.1693 114.548 26.2891 115.909 26.2891C117.269 26.2891 118.372 25.1693 118.372 23.7879C118.372 22.4066 117.269 21.2868 115.909 21.2868Z" fill="#31759A"/>
<path d="M105.339 21.2868C103.979 21.2868 102.876 22.4066 102.876 23.7879C102.876 25.1693 103.979 26.2891 105.339 26.2891C106.7 26.2891 107.803 25.1693 107.803 23.7879C107.803 22.4066 106.7 21.2868 105.339 21.2868Z" fill="#31759A"/>
<path d="M117.946 16.7406H103.304C100.524 16.7406 98.1476 18.5295 97.232 21.0332C98.4905 14.6908 104.008 9.91458 110.625 9.91458C117.242 9.91458 122.76 14.691 124.018 21.0332C123.102 18.5295 120.726 16.7406 117.946 16.7406ZM98.8787 24.2606V23.3153C98.8787 20.8374 100.864 18.8215 103.304 18.8215H117.946C120.386 18.8215 122.371 20.8374 122.371 23.3153V24.2606C122.371 26.7386 120.386 28.7545 117.946 28.7545H103.304C100.864 28.7545 98.8787 26.7386 98.8787 24.2606ZM110.625 37.6612C104.008 37.6612 98.4906 32.8852 97.2322 26.543C98.1477 29.0467 100.524 30.8354 103.304 30.8354H117.946C120.726 30.8354 123.102 29.0465 124.018 26.5428C122.759 32.885 117.242 37.6612 110.625 37.6612ZM127.638 20.1202C127.143 20.1202 126.672 20.2215 126.242 20.4045C124.984 14.3864 120.438 9.60225 114.602 8.08298C114.889 7.90014 115.05 7.69432 115.05 7.47692C115.05 6.78591 113.426 6.21344 111.306 6.11127V3.10476C111.851 2.84462 112.23 2.28298 112.23 1.63014C112.23 0.729809 111.512 0 110.625 0C109.738 0 109.02 0.729809 109.02 1.63014C109.02 2.28298 109.399 2.84462 109.944 3.10476V6.11127C107.824 6.21344 106.2 6.78591 106.2 7.47692C106.2 7.69432 106.361 7.90014 106.648 8.08298C100.812 9.60225 96.2662 14.3864 95.0077 20.4045C94.5782 20.2215 94.1069 20.1202 93.612 20.1202C91.6171 20.1202 90 21.7624 90 23.7879C90 25.8136 91.6171 27.4556 93.612 27.4556C94.1071 27.4556 94.5785 27.3542 95.0082 27.1713C96.5408 34.5007 102.95 40 110.625 40C118.3 40 124.709 34.5007 126.242 27.1713C126.671 27.3542 127.143 27.4556 127.638 27.4556C129.633 27.4556 131.25 25.8136 131.25 23.7879C131.25 21.7624 129.633 20.1202 127.638 20.1202Z" fill="#71B5E2"/>
<path d="M20.7823 28.9075C20.4823 28.9075 20.2423 28.84 20.0623 28.705C19.8823 28.57 19.7773 28.39 19.7473 28.165C19.7173 27.94 19.7623 27.685 19.8823 27.4L25.9798 13.72C26.1298 13.36 26.3173 13.105 26.5423 12.955C26.7823 12.805 27.0448 12.73 27.3298 12.73C27.5998 12.73 27.8473 12.805 28.0723 12.955C28.3123 13.105 28.5073 13.36 28.6573 13.72L34.7548 27.4C34.8898 27.685 34.9423 27.9475 34.9123 28.1875C34.8823 28.4125 34.7848 28.5925 34.6198 28.7275C34.4548 28.8475 34.2223 28.9075 33.9223 28.9075C33.5923 28.9075 33.3298 28.825 33.1348 28.66C32.9398 28.495 32.7673 28.24 32.6173 27.895L31.0423 24.25L32.0998 24.88H22.5148L23.5498 24.25L21.9973 27.895C21.8473 28.255 21.6823 28.5175 21.5023 28.6825C21.3223 28.8325 21.0823 28.9075 20.7823 28.9075ZM27.2848 15.475L23.8873 23.53L23.3248 22.99H31.2673L30.7498 23.53L27.3298 15.475H27.2848Z" fill="#71B5E2"/>
<path d="M38.6097 28.9075C38.2347 28.9075 37.9422 28.8025 37.7322 28.5925C37.5372 28.3825 37.4397 28.09 37.4397 27.715V13.9225C37.4397 13.5325 37.5372 13.24 37.7322 13.045C37.9422 12.835 38.2347 12.73 38.6097 12.73C38.9847 12.73 39.2697 12.835 39.4647 13.045C39.6747 13.24 39.7797 13.5325 39.7797 13.9225V27.715C39.7797 28.09 39.6822 28.3825 39.4872 28.5925C39.2922 28.8025 38.9997 28.9075 38.6097 28.9075Z" fill="#71B5E2"/>
<path d="M5.60192 28.9077C5.28692 28.9077 5.00943 28.8327 4.76943 28.6827C4.54443 28.5177 4.36442 28.2627 4.22942 27.9177L0.921925 19.1652C0.801925 18.8652 0.764425 18.6027 0.809425 18.3777C0.854425 18.1377 0.966925 17.9502 1.14692 17.8152C1.34192 17.6802 1.58942 17.6127 1.88942 17.6127C2.15942 17.6127 2.37692 17.6802 2.54192 17.8152C2.72192 17.9352 2.87192 18.1752 2.99192 18.5352L5.93942 26.8377H5.39943L8.45942 18.4452C8.56442 18.1602 8.70692 17.9502 8.88692 17.8152C9.06693 17.6802 9.29943 17.6127 9.58442 17.6127C9.86942 17.6127 10.1019 17.6802 10.2819 17.8152C10.4769 17.9502 10.6194 18.1602 10.7094 18.4452L13.7019 26.8377H13.2069L16.1994 18.4902C16.3194 18.1452 16.4694 17.9127 16.6494 17.7927C16.8444 17.6727 17.0619 17.6127 17.3019 17.6127C17.6019 17.6127 17.8269 17.6877 17.9769 17.8377C18.1419 17.9877 18.2319 18.1827 18.2469 18.4227C18.2769 18.6477 18.2394 18.8952 18.1344 19.1652L14.8269 27.9177C14.6919 28.2477 14.5044 28.4952 14.2644 28.6602C14.0394 28.8252 13.7769 28.9077 13.4769 28.9077C13.1619 28.9077 12.8844 28.8252 12.6444 28.6602C12.4194 28.4952 12.2394 28.2477 12.1044 27.9177L8.95443 19.3902H10.0794L6.95193 27.9177C6.83193 28.2477 6.65193 28.4952 6.41193 28.6602C6.18693 28.8252 5.91692 28.9077 5.60192 28.9077Z" fill="#31759A"/>
<path d="M44.3381 32.9577C43.9781 32.9577 43.7006 32.8602 43.5056 32.6652C43.3106 32.4702 43.2131 32.1852 43.2131 31.8102V18.7602C43.2131 18.3852 43.3106 18.1002 43.5056 17.9052C43.7006 17.7102 43.9706 17.6127 44.3156 17.6127C44.6756 17.6127 44.9531 17.7102 45.1481 17.9052C45.3431 18.1002 45.4406 18.3852 45.4406 18.7602V20.7177L45.1931 20.2452C45.4331 19.4352 45.9056 18.7902 46.6106 18.3102C47.3156 17.8152 48.1481 17.5677 49.1081 17.5677C50.0831 17.5677 50.9306 17.8002 51.6506 18.2652C52.3856 18.7302 52.9481 19.3827 53.3381 20.2227C53.7431 21.0627 53.9456 22.0752 53.9456 23.2602C53.9456 24.4152 53.7431 25.4277 53.3381 26.2977C52.9481 27.1527 52.3931 27.8127 51.6731 28.2777C50.9531 28.7277 50.0981 28.9527 49.1081 28.9527C48.1631 28.9527 47.3381 28.7127 46.6331 28.2327C45.9281 27.7527 45.4556 27.1152 45.2156 26.3202H45.4856V31.8102C45.4856 32.1852 45.3806 32.4702 45.1706 32.6652C44.9756 32.8602 44.6981 32.9577 44.3381 32.9577ZM48.5456 27.1977C49.1756 27.1977 49.7231 27.0477 50.1881 26.7477C50.6531 26.4477 51.0131 26.0052 51.2681 25.4202C51.5231 24.8352 51.6506 24.1152 51.6506 23.2602C51.6506 21.9702 51.3656 20.9952 50.7956 20.3352C50.2406 19.6752 49.4906 19.3452 48.5456 19.3452C47.9306 19.3452 47.3831 19.4952 46.9031 19.7952C46.4381 20.0802 46.0781 20.5152 45.8231 21.1002C45.5681 21.6852 45.4406 22.4052 45.4406 23.2602C45.4406 24.5352 45.7256 25.5102 46.2956 26.1852C46.8656 26.8602 47.6156 27.1977 48.5456 27.1977Z" fill="#31759A"/>
<path d="M57.6316 28.8852C57.2716 28.8852 56.9941 28.7802 56.7991 28.5702C56.6041 28.3452 56.5066 28.0377 56.5066 27.6477V18.8727C56.5066 18.4827 56.6041 18.1827 56.7991 17.9727C56.9941 17.7627 57.2716 17.6577 57.6316 17.6577C57.9916 17.6577 58.2691 17.7627 58.4641 17.9727C58.6741 18.1827 58.7791 18.4827 58.7791 18.8727V27.6477C58.7791 28.0377 58.6816 28.3452 58.4866 28.5702C58.2916 28.7802 58.0066 28.8852 57.6316 28.8852ZM57.6316 15.3177C57.1816 15.3177 56.8291 15.2052 56.5741 14.9802C56.3341 14.7552 56.2141 14.4402 56.2141 14.0352C56.2141 13.6152 56.3341 13.3002 56.5741 13.0902C56.8291 12.8652 57.1816 12.7527 57.6316 12.7527C58.0816 12.7527 58.4266 12.8652 58.6666 13.0902C58.9216 13.3002 59.0491 13.6152 59.0491 14.0352C59.0491 14.4402 58.9216 14.7552 58.6666 14.9802C58.4266 15.2052 58.0816 15.3177 57.6316 15.3177Z" fill="#31759A"/>
<path d="M63.7778 28.9077C63.4178 28.9077 63.1328 28.8102 62.9228 28.6152C62.7278 28.4052 62.6303 28.1202 62.6303 27.7602V19.5252H61.3703C61.0853 19.5252 60.8603 19.4502 60.6953 19.3002C60.5303 19.1352 60.4478 18.9177 60.4478 18.6477C60.4478 18.3627 60.5303 18.1452 60.6953 17.9952C60.8603 17.8452 61.0853 17.7702 61.3703 17.7702H63.2828L62.6303 18.3777V17.5677C62.6303 16.0827 62.9978 14.9652 63.7328 14.2152C64.4678 13.4502 65.5403 13.0002 66.9503 12.8652L67.6478 12.8202C67.9028 12.7902 68.1053 12.8277 68.2553 12.9327C68.4053 13.0377 68.5028 13.1727 68.5478 13.3377C68.5928 13.5027 68.5928 13.6752 68.5478 13.8552C68.5178 14.0202 68.4428 14.1702 68.3228 14.3052C68.2028 14.4402 68.0528 14.5152 67.8728 14.5302L67.4453 14.5527C66.5603 14.6277 65.9153 14.8827 65.5103 15.3177C65.1053 15.7377 64.9028 16.3827 64.9028 17.2527V18.1302L64.5878 17.7702H67.0853C67.4003 17.7702 67.6328 17.8452 67.7828 17.9952C67.9478 18.1452 68.0303 18.3627 68.0303 18.6477C68.0303 18.9177 67.9478 19.1352 67.7828 19.3002C67.6328 19.4502 67.4003 19.5252 67.0853 19.5252H64.9028V27.7602C64.9028 28.5252 64.5278 28.9077 63.7778 28.9077Z" fill="#31759A"/>
<path d="M72.1678 32.9577C71.8978 32.9577 71.6728 32.8827 71.4928 32.7327C71.3278 32.5977 71.2303 32.4102 71.2003 32.1702C71.1853 31.9452 71.2303 31.6977 71.3353 31.4277L72.8653 27.9852V28.9527L68.6578 19.1652C68.5528 18.8952 68.5153 18.6402 68.5453 18.4002C68.5753 18.1602 68.6878 17.9727 68.8828 17.8377C69.0778 17.6877 69.3403 17.6127 69.6703 17.6127C69.9553 17.6127 70.1803 17.6802 70.3453 17.8152C70.5103 17.9502 70.6603 18.1827 70.7953 18.5127L74.1928 26.9052H73.5628L77.0053 18.5127C77.1403 18.1677 77.2978 17.9352 77.4778 17.8152C77.6578 17.6802 77.9053 17.6127 78.2203 17.6127C78.4903 17.6127 78.7003 17.6877 78.8503 17.8377C79.0153 17.9727 79.1128 18.1602 79.1428 18.4002C79.1878 18.6252 79.1503 18.8727 79.0303 19.1427L73.4053 32.0802C73.2553 32.4252 73.0828 32.6577 72.8878 32.7777C72.7078 32.8977 72.4678 32.9577 72.1678 32.9577Z" fill="#31759A"/>
</svg>
