<svg height="512" viewBox="0 0 128 128" width="512" xmlns="http://www.w3.org/2000/svg"><g><path d="m121.694 73.583v-19.166h-12.681a45.742 45.742 0 0 0 -6.413-15.463l8.974-8.974-13.555-13.552-8.973 8.972a45.742 45.742 0 0 0 -15.463-6.415v-12.679h-19.166v12.681a45.733 45.733 0 0 0 -15.463 6.413l-8.974-8.972-13.552 13.552 8.972 8.974a45.742 45.742 0 0 0 -6.415 15.463h-12.679v19.166h12.681a45.742 45.742 0 0 0 6.413 15.463l-8.974 8.973 13.554 13.553 8.974-8.974a45.733 45.733 0 0 0 15.463 6.415v12.681h19.166v-12.681a45.742 45.742 0 0 0 15.463-6.413l8.973 8.974 13.553-13.553-8.972-8.975a45.742 45.742 0 0 0 6.415-15.463z" fill="#1daef1"/><circle cx="64" cy="64" fill="#cef4ff" r="26.853"/><path d="m76.833 76.83a18.118 18.118 0 0 1 -20.6 3.55l-6.42 6.42a26.924 26.924 0 0 1 -8.61-8.61l6.42-6.42a18.119 18.119 0 0 1 24.15-24.15l-12.08 12.07v8.62h8.607l12.083-12.08a18.147 18.147 0 0 1 -3.55 20.6z" fill="#ff4155"/></g></svg>