<svg width="20" height="20" viewBox="0 0 20 20" fill="none" xmlns="http://www.w3.org/2000/svg">
    <path d="M12.8408 8.07222H16.1137V4.79932" stroke="#F38744" strokeWidth="1.5" strokeLinecap="round" strokeLinejoin="round"/>
    <path d="M5.31445 5.75745C5.87163 5.20027 6.5331 4.75829 7.2611 4.45675C7.98909 4.1552 8.76935 4 9.55732 4C10.3453 4 11.1255 4.1552 11.8535 4.45675C12.5815 4.75829 13.243 5.20027 13.8002 5.75745L16.1145 8.07174" stroke="#F38744" strokeWidth="1.5" strokeLinecap="round" strokeLinejoin="round"/>
    <path d="M6.2729 11.9282H3V15.2011" stroke="#F38744" strokeWidth="1.5" strokeLinecap="round" strokeLinejoin="round"/>
    <path d="M13.8 14.2425C13.2428 14.7997 12.5814 15.2417 11.8534 15.5432C11.1254 15.8448 10.3451 16 9.55715 16C8.76918 16 7.98892 15.8448 7.26093 15.5432C6.53294 15.2417 5.87147 14.7997 5.31429 14.2425L3 11.9282" stroke="#F38744" strokeWidth="1.5" strokeLinecap="round" strokeLinejoin="round"/>
</svg>
