<svg width="16" height="16" viewBox="0 0 16 16" fill="none" xmlns="http://www.w3.org/2000/svg">
<g opacity="0.5">
<path d="M10.6666 14V12.6667C10.6666 11.9594 10.3856 11.2811 9.88554 10.781C9.38544 10.281 8.70716 10 7.99992 10H3.99992C3.29267 10 2.6144 10.281 2.1143 10.781C1.6142 11.2811 1.33325 11.9594 1.33325 12.6667V14" stroke="#020617" strokeWidth="1.33" strokeLinecap="round" strokeLinejoin="round"/>
<path d="M5.99992 7.33333C7.47268 7.33333 8.66659 6.13943 8.66659 4.66667C8.66659 3.19391 7.47268 2 5.99992 2C4.52716 2 3.33325 3.19391 3.33325 4.66667C3.33325 6.13943 4.52716 7.33333 5.99992 7.33333Z" stroke="#020617" strokeWidth="1.33" strokeLinecap="round" strokeLinejoin="round"/>
<path d="M14.6667 13.9993V12.6659C14.6663 12.0751 14.4697 11.5011 14.1077 11.0341C13.7457 10.5672 13.2388 10.2336 12.6667 10.0859" stroke="#020617" strokeWidth="1.25" strokeLinecap="round" strokeLinejoin="round"/>
<path d="M10.6667 2.08594C11.2404 2.2328 11.7488 2.5664 12.1118 3.03414C12.4749 3.50188 12.672 4.07716 12.672 4.66927C12.672 5.26138 12.4749 5.83666 12.1118 6.3044C11.7488 6.77214 11.2404 7.10574 10.6667 7.2526" stroke="#020617" strokeWidth="1.25" strokeLinecap="round" strokeLinejoin="round"/>
</g>
</svg>
