<svg width="64" height="64" viewBox="0 0 64 64" fill="none" xmlns="http://www.w3.org/2000/svg">
<path d="M48.0002 34.6667C45.4935 34.6667 43.1735 35.5467 41.3335 37.0133C40.0818 38.0081 39.0717 39.2734 38.3789 40.7144C37.6861 42.1553 37.3287 43.7345 37.3335 45.3333C37.3335 47.3333 37.8935 49.2267 38.8802 50.8267C39.8203 52.4066 41.1556 53.7146 42.7548 54.6217C44.3539 55.5288 46.1617 56.0038 48.0002 56C50.6935 56 53.1469 55.0133 55.0135 53.3333C55.8402 52.64 56.5602 51.7867 57.1202 50.8267C58.1069 49.2267 58.6669 47.3333 58.6669 45.3333C58.6669 39.44 53.8935 34.6667 48.0002 34.6667ZM53.5202 44.1867L47.8402 49.44C47.4669 49.7867 46.9602 49.9733 46.4802 49.9733C45.9735 49.9733 45.4669 49.7867 45.0669 49.3867L42.4269 46.7467C42.0549 46.3703 41.8463 45.8625 41.8463 45.3333C41.8463 44.8042 42.0549 44.2964 42.4269 43.92C43.2002 43.1467 44.4802 43.1467 45.2535 43.92L46.5335 45.2L50.8002 41.2533C51.6002 40.5067 52.8802 40.56 53.6269 41.36C54.3735 42.16 54.3202 43.4133 53.5202 44.1867Z" fill="#059669"/>
<path opacity="0.4" d="M56.2398 57.3333C56.2398 58.08 55.6531 58.6667 54.9064 58.6667L9.0931 58.6667C8.34643 58.6667 7.75976 58.08 7.75976 57.3333C7.75976 46.2933 18.6398 37.3333 31.9998 37.3333C34.7464 37.3333 37.4131 37.7067 39.8664 38.4267C38.2931 40.2933 37.3331 42.72 37.3331 45.3333C37.3331 47.3333 37.8931 49.2267 38.8798 50.8267C39.4131 51.7333 40.1064 52.56 40.9064 53.2533C42.7731 54.96 45.2531 56 47.9998 56C50.9864 56 53.6798 54.7733 55.5998 52.8C56.0264 54.24 56.2398 55.76 56.2398 57.3333Z" fill="#059669"/>
<path d="M31.9998 32C35.5361 32 38.9274 30.5952 41.4279 28.0948C43.9284 25.5943 45.3332 22.2029 45.3332 18.6667C45.3332 15.1304 43.9284 11.7391 41.4279 9.23857C38.9274 6.73809 35.5361 5.33333 31.9998 5.33333C28.4636 5.33333 25.0722 6.73809 22.5717 9.23857C20.0713 11.7391 18.6665 15.1304 18.6665 18.6667C18.6665 22.2029 20.0713 25.5943 22.5717 28.0948C25.0722 30.5952 28.4636 32 31.9998 32Z" fill="#059669"/>
</svg>
