<svg width="22" height="22" viewBox="0 0 22 22" fill="none" xmlns="http://www.w3.org/2000/svg">
<path d="M2.40047 6.53479L11.2305 11.5384L20.0005 6.56417M11.2305 20.4099V11.5287M16.2305 12.2141V8.63026L6.74047 3.2643M9.16012 1.67802L3.82012 4.58621C2.61012 5.24226 1.62012 6.8873 1.62012 8.23858V13.771C1.62012 15.1223 2.61012 16.7673 3.82012 17.4234L9.16012 20.3316C10.3001 20.9484 12.1701 20.9484 13.3101 20.3316L18.6501 17.4234C19.8601 16.7673 20.8501 15.1223 20.8501 13.771V8.23858C20.8501 6.8873 19.8601 5.24226 18.6501 4.58621L13.3101 1.67802C12.1601 1.05134 10.3001 1.05134 9.16012 1.67802Z" stroke="#3E4856" stroke-width="1.5" stroke-linecap="round" stroke-linejoin="round"/>
</svg>
