<svg width="102" height="24" viewBox="0 0 102 24" fill="none" xmlns="http://www.w3.org/2000/svg">
<rect width="102" height="24" rx="12" fill="#EFF6FF"/>
<path d="M10.9588 16V7.27273H12.2756V11.0653H16.6264V7.27273H17.9474V16H16.6264V12.1946H12.2756V16H10.9588ZM22.5199 16.1321C21.9063 16.1321 21.3707 15.9915 20.9134 15.7102C20.456 15.429 20.1009 15.0355 19.848 14.5298C19.5952 14.0241 19.4688 13.4332 19.4688 12.7571C19.4688 12.0781 19.5952 11.4844 19.848 10.9759C20.1009 10.4673 20.456 10.0724 20.9134 9.79119C21.3707 9.50994 21.9063 9.36932 22.5199 9.36932C23.1335 9.36932 23.669 9.50994 24.1264 9.79119C24.5838 10.0724 24.9389 10.4673 25.1918 10.9759C25.4446 11.4844 25.571 12.0781 25.571 12.7571C25.571 13.4332 25.4446 14.0241 25.1918 14.5298C24.9389 15.0355 24.5838 15.429 24.1264 15.7102C23.669 15.9915 23.1335 16.1321 22.5199 16.1321ZM22.5241 15.0625C22.9219 15.0625 23.2514 14.9574 23.5128 14.7472C23.7741 14.5369 23.9673 14.2571 24.0923 13.9077C24.2202 13.5582 24.2841 13.1733 24.2841 12.7528C24.2841 12.3352 24.2202 11.9517 24.0923 11.6023C23.9673 11.25 23.7741 10.9673 23.5128 10.7543C23.2514 10.5412 22.9219 10.4347 22.5241 10.4347C22.1236 10.4347 21.7912 10.5412 21.527 10.7543C21.2656 10.9673 21.071 11.25 20.9432 11.6023C20.8182 11.9517 20.7557 12.3352 20.7557 12.7528C20.7557 13.1733 20.8182 13.5582 20.9432 13.9077C21.071 14.2571 21.2656 14.5369 21.527 14.7472C21.7912 14.9574 22.1236 15.0625 22.5241 15.0625ZM28.2131 16L26.2869 9.45455H27.6037L28.8864 14.2614H28.9503L30.2372 9.45455H31.554L32.8324 14.2401H32.8963L34.1705 9.45455H35.4872L33.5653 16H32.2656L30.9361 11.2741H30.8381L29.5085 16H28.2131ZM39.8722 16V9.45455H41.1463V16H39.8722ZM40.5156 8.4446C40.294 8.4446 40.1037 8.37074 39.9446 8.22301C39.7884 8.07244 39.7102 7.89347 39.7102 7.68608C39.7102 7.47585 39.7884 7.29687 39.9446 7.14915C40.1037 6.99858 40.294 6.9233 40.5156 6.9233C40.7372 6.9233 40.9261 6.99858 41.0824 7.14915C41.2415 7.29687 41.321 7.47585 41.321 7.68608C41.321 7.89347 41.2415 8.07244 41.0824 8.22301C40.9261 8.37074 40.7372 8.4446 40.5156 8.4446ZM45.9158 9.45455V10.4773H42.3406V9.45455H45.9158ZM43.2994 7.88636H44.5735V14.0781C44.5735 14.3253 44.6104 14.5114 44.6843 14.6364C44.7582 14.7585 44.8533 14.8423 44.9698 14.8878C45.0891 14.9304 45.2184 14.9517 45.3576 14.9517C45.4599 14.9517 45.5494 14.9446 45.6261 14.9304C45.7028 14.9162 45.7624 14.9048 45.805 14.8963L46.0352 15.9489C45.9613 15.9773 45.8562 16.0057 45.7198 16.0341C45.5835 16.0653 45.413 16.0824 45.2085 16.0852C44.8732 16.0909 44.5607 16.0312 44.271 15.9062C43.9812 15.7812 43.7468 15.5881 43.5678 15.3267C43.3888 15.0653 43.2994 14.7372 43.2994 14.3423V7.88636ZM52.3121 16L49.8917 7.27273H51.2766L52.9769 14.0312H53.0579L54.8263 7.27273H56.1985L57.967 14.0355H58.0479L59.744 7.27273H61.1332L58.7085 16H57.3832L55.5465 9.46307H55.4783L53.6417 16H52.3121ZM64.3441 16.1321C63.7305 16.1321 63.195 15.9915 62.7376 15.7102C62.2802 15.429 61.9251 15.0355 61.6722 14.5298C61.4194 14.0241 61.293 13.4332 61.293 12.7571C61.293 12.0781 61.4194 11.4844 61.6722 10.9759C61.9251 10.4673 62.2802 10.0724 62.7376 9.79119C63.195 9.50994 63.7305 9.36932 64.3441 9.36932C64.9577 9.36932 65.4933 9.50994 65.9506 9.79119C66.408 10.0724 66.7631 10.4673 67.016 10.9759C67.2688 11.4844 67.3952 12.0781 67.3952 12.7571C67.3952 13.4332 67.2688 14.0241 67.016 14.5298C66.7631 15.0355 66.408 15.429 65.9506 15.7102C65.4933 15.9915 64.9577 16.1321 64.3441 16.1321ZM64.3484 15.0625C64.7461 15.0625 65.0756 14.9574 65.337 14.7472C65.5984 14.5369 65.7915 14.2571 65.9165 13.9077C66.0444 13.5582 66.1083 13.1733 66.1083 12.7528C66.1083 12.3352 66.0444 11.9517 65.9165 11.6023C65.7915 11.25 65.5984 10.9673 65.337 10.7543C65.0756 10.5412 64.7461 10.4347 64.3484 10.4347C63.9478 10.4347 63.6154 10.5412 63.3512 10.7543C63.0898 10.9673 62.8952 11.25 62.7674 11.6023C62.6424 11.9517 62.5799 12.3352 62.5799 12.7528C62.5799 13.1733 62.6424 13.5582 62.7674 13.9077C62.8952 14.2571 63.0898 14.5369 63.3512 14.7472C63.6154 14.9574 63.9478 15.0625 64.3484 15.0625ZM68.8175 16V9.45455H70.049V10.4943H70.1172C70.2365 10.142 70.4467 9.86506 70.7479 9.66335C71.0518 9.45881 71.3956 9.35653 71.7791 9.35653C71.8587 9.35653 71.9524 9.35937 72.0604 9.36506C72.1712 9.37074 72.2578 9.37784 72.3203 9.38636V10.6051C72.2692 10.5909 72.1783 10.5753 72.0476 10.5582C71.9169 10.5384 71.7862 10.5284 71.6555 10.5284C71.3544 10.5284 71.0859 10.5923 70.8501 10.7202C70.6172 10.8452 70.4325 11.0199 70.2962 11.2443C70.1598 11.4659 70.0916 11.7187 70.0916 12.0028V16H68.8175ZM74.5948 13.7798L74.5863 12.2244H74.8079L77.4158 9.45455H78.9414L75.967 12.608H75.7667L74.5948 13.7798ZM73.4229 16V7.27273H74.6971V16H73.4229ZM77.5565 16L75.2127 12.8892L76.0906 11.9986L79.1204 16H77.5565ZM85.0075 11.0526L83.8526 11.2571C83.8043 11.1094 83.7276 10.9687 83.6225 10.8352C83.5202 10.7017 83.381 10.5923 83.2049 10.5071C83.0288 10.4219 82.8086 10.3793 82.5444 10.3793C82.1836 10.3793 81.8825 10.4602 81.641 10.6222C81.3995 10.7812 81.2788 10.9872 81.2788 11.2401C81.2788 11.4588 81.3597 11.6349 81.5217 11.7685C81.6836 11.902 81.945 12.0114 82.3058 12.0966L83.3455 12.3352C83.9478 12.4744 84.3967 12.6889 84.6921 12.9787C84.9876 13.2685 85.1353 13.6449 85.1353 14.108C85.1353 14.5 85.0217 14.8494 84.7944 15.1562C84.57 15.4602 84.256 15.6989 83.8526 15.8722C83.4521 16.0455 82.9876 16.1321 82.4592 16.1321C81.7262 16.1321 81.1282 15.9759 80.6651 15.6634C80.2021 15.348 79.918 14.9006 79.8129 14.321L81.0444 14.1335C81.1211 14.4545 81.2788 14.6974 81.5174 14.8622C81.756 15.0241 82.0671 15.1051 82.4506 15.1051C82.8683 15.1051 83.2021 15.0185 83.4521 14.8452C83.7021 14.669 83.8271 14.4545 83.8271 14.2017C83.8271 13.9972 83.7504 13.8253 83.5969 13.6861C83.4464 13.5469 83.2148 13.4418 82.9023 13.3707L81.7944 13.1278C81.1836 12.9886 80.7319 12.767 80.4393 12.4631C80.1495 12.1591 80.0046 11.7741 80.0046 11.3082C80.0046 10.9219 80.1126 10.5838 80.3285 10.294C80.5444 10.0043 80.8427 9.77841 81.2234 9.61648C81.604 9.4517 82.0401 9.36932 82.5316 9.36932C83.239 9.36932 83.7958 9.52273 84.2021 9.82955C84.6083 10.1335 84.8768 10.5412 85.0075 11.0526ZM87.9297 13.4901V13.4091C87.9354 12.8807 87.9879 12.4602 88.0874 12.1477C88.1896 11.8352 88.3345 11.5824 88.522 11.3892C88.7095 11.196 88.9354 11.0199 89.1996 10.8608C89.37 10.7528 89.5234 10.6321 89.6598 10.4986C89.7962 10.3651 89.9041 10.2116 89.9837 10.0384C90.0632 9.86506 90.103 9.6733 90.103 9.46307C90.103 9.21023 90.0433 8.99148 89.924 8.80682C89.8047 8.62216 89.6456 8.48011 89.4467 8.38068C89.2507 8.27841 89.032 8.22727 88.7905 8.22727C88.5717 8.22727 88.3629 8.27273 88.1641 8.36364C87.9652 8.45455 87.8004 8.59659 87.6697 8.78977C87.5391 8.98011 87.4638 9.22585 87.4439 9.52699H86.1484C86.1683 9.01562 86.2976 8.58381 86.5362 8.23153C86.7749 7.87642 87.0902 7.60795 87.4822 7.42614C87.8771 7.24432 88.3132 7.15341 88.7905 7.15341C89.3132 7.15341 89.7706 7.25142 90.1626 7.44744C90.5547 7.64062 90.8587 7.91193 91.0746 8.26136C91.2933 8.60795 91.4027 9.01278 91.4027 9.47585C91.4027 9.79403 91.353 10.081 91.2536 10.3366C91.1541 10.5895 91.0121 10.8153 90.8274 11.0142C90.6456 11.2131 90.4268 11.3892 90.1712 11.5426C89.9297 11.6932 89.7337 11.8494 89.5831 12.0114C89.4354 12.1733 89.3274 12.3651 89.2592 12.5866C89.1911 12.8082 89.1541 13.0824 89.1484 13.4091V13.4901H87.9297ZM88.5732 16.081C88.3402 16.081 88.1399 15.9986 87.9723 15.8338C87.8047 15.6662 87.7209 15.4645 87.7209 15.2287C87.7209 14.9957 87.8047 14.7969 87.9723 14.6321C88.1399 14.4645 88.3402 14.3807 88.5732 14.3807C88.8033 14.3807 89.0021 14.4645 89.1697 14.6321C89.3402 14.7969 89.4254 14.9957 89.4254 15.2287C89.4254 15.3849 89.3857 15.5284 89.3061 15.6591C89.2294 15.7869 89.1271 15.8892 88.9993 15.9659C88.8714 16.0426 88.7294 16.081 88.5732 16.081Z" fill="#1F75FF"/>
</svg>
